<svg version="1.1" id="Capa_1" xmlns="http://www.w3.org/2000/svg" xmlns:xlink="http://www.w3.org/1999/xlink" x="0px" y="0px" viewBox="0 0 512.002 512.002" style="enable-background:new 0 0 512.002 512.002;" xml:space="preserve" width="512.002"  height="512.002" ><g>
   <g>
      <path d="M502,114.048H402v-38c0-5.523-4.478-10-10-10H286.185c-5.522,0-10,4.477-10,10s4.478,10,10,10H382v70.764
         c-51.372,74.408-83.884,176.336-86.085,269.142h-87.887c3.586-92.825,56.028-194.508,108.019-255.856
         c2.519-2.972,3.082-7.135,1.444-10.669s-5.178-5.796-9.073-5.796H207.312c-5.522,0-10,4.477-10,10v13.728H130V86.048h96.067
         c5.522,0,10-4.477,10-10s-4.478-10-10-10H120c-5.522,0-10,4.477-10,10v38H10c-5.522,0-10,4.477-10,10v80.46
         c0,5.523,4.478,10,10,10h48.93c5.522,0,10-4.477,10-10v-7.137h57.051c-16.016,21.565-30.675,46.585-42.201,72.208
         c-17.872,39.73-27.318,79.313-27.318,114.469c0,5.523,4.478,10,10,10h78.317c5.522,0,10-4.477,10-10
         c0-65.805,22.327-136.733,59.726-189.735c0.012-0.016,0.02-0.034,0.032-0.05c1.716-1.795,2.776-4.223,2.776-6.903v-13.728h70.228
         c-23.712,30.977-45.503,67.72-62.387,105.418c-24.415,54.514-37.319,108.771-37.319,156.903c0,5.523,4.478,10,10,10h107.963
         c5.522,0,10-4.477,10-10c0-80.052,24.177-168.271,64.351-238.583h40.522c-16.016,21.565-30.675,46.585-42.201,72.208
         c-17.872,39.73-27.318,79.313-27.318,114.469c0,5.523,4.478,10,10,10h78.317c5.522,0,10-4.477,10-10
         c0-66.333,23.261-140.505,60.704-193.57c1.19-1.687,1.829-3.701,1.829-5.765v-60.665C512,118.525,507.522,114.048,502,114.048z
          M110,177.371H58.93c-5.522,0-10,4.477-10,10v7.137H20v-60.46h90V177.371z M134.938,374.048H76.733
         c3.432-63.843,38.758-133.11,74.636-176.688h37.135C156.422,248.825,136.882,313.053,134.938,374.048z M492,181.572
         c-36.776,53.38-60.208,125.955-62.369,192.477h-58.209c3.525-65.579,40.702-136.892,77.563-180.195
         c2.527-2.969,3.098-7.137,1.463-10.676c-1.636-3.54-5.179-5.806-9.078-5.806h-49.041c2.569-3.958,5.179-7.863,7.854-11.671
         c1.183-1.684,1.817-3.691,1.817-5.749v-25.903h90V181.572z" fill="#D0D0D0"></path>
   </g>
</g>
<g>
   <g>
      <path d="M256.127,66.048H256c-5.522,0-10,4.477-10,10s4.478,10,10,10h0.127c5.522,0,10-4.477,10-10S261.649,66.048,256.127,66.048
         z" fill="#D0D0D0"></path>
   </g></g><g></g><g></g><g></g><g></g><g></g><g></g><g></g><g></g><g></g><g></g><g></g><g></g><g></g><g></g><g></g>
</svg>